<?xml version="1.0" encoding="iso-8859-1"?>
<!-- Generator: Adobe Illustrator 19.1.0, SVG Export Plug-In . SVG Version: 6.00 Build 0)  -->
<svg xmlns="http://www.w3.org/2000/svg" xmlns:xlink="http://www.w3.org/1999/xlink" version="1.1" id="Capa_1" x="0px" y="0px" viewBox="0 0 1161.918 1161.918" style="enable-background:new 0 0 1161.918 1161.918;" xml:space="preserve" width="512px" height="512px">
<g>
	<path d="M547.754,333.719c6.697,4.917,17.053,7.408,30.774,7.408c43.371,0,131.836-26.883,184.593-99.024   c65-88.87,54.877-209.291,22.259-233.23C777.347,2.986,765.621,0,750.529,0c-43.017,0-126.591,26.766-180.525,100.506   C507.693,185.709,520.716,313.895,547.754,333.719z" fill="#FFFFFF"/>
	<path d="M1016.36,421.676c-36.98-51.124-94.344-82.932-170.505-94.542c-10.08-1.534-20.38-2.314-30.623-2.314   c-65.28,0-120.765,30.873-165.343,55.683c-28.046,15.605-52.266,29.085-68.926,29.085c-13.42,0-37.139-13.127-62.246-27.025   c-46.478-25.728-104.324-57.743-171.902-57.743c-10.326,0-20.668,0.78-30.748,2.314c-76.157,11.61-133.526,43.418-170.501,94.537   c-38.247,52.873-52.123,124.618-39.07,202.021l1.435,8.533c24.301,144.709,88.845,529.094,315.141,529.094   c3.215,0,6.835,0.082,10.787,0.168c4.973,0.108,10.451,0.228,16.29,0.228c14.131,0,25.93-0.707,37.131-2.228   c6.128-0.832,20.483-2.775,23.616-14.807c1.043-4.012,1.388-11.795-8.037-18.876c-64.854-48.684-147.036-128.113-172.423-166.648   c-23.392-35.48-32.95-67.655-30.99-104.316c3.999-74.761,66.211-135.585,138.675-135.585c55.653,0,95.356,45.224,116.688,69.521   c11.886,13.536,17.307,19.712,26.154,19.712c9.278,0,15.82-7.137,28.852-21.354c23.271-25.387,62.221-67.879,113.986-67.879   c72.464,0,134.676,60.824,138.675,135.585c1.956,36.579-7.606,68.758-30.998,104.329c-25.818,39.264-105.38,116.675-170.26,165.661   c-9.511,7.18-8.796,15.497-8.046,18.742c1.754,7.619,8.171,12.562,19.065,14.691c12.571,2.461,26.193,3.655,41.647,3.655   c6.469,0,12.213-0.194,17.285-0.366c3.547-0.121,6.667-0.233,9.27-0.233c100.019,0,178.607-66.362,233.575-197.241   c44.362-105.634,64.259-232.092,76.144-307.651c1.913-12.161,3.646-23.159,5.262-32.735   C1068.475,546.294,1054.603,474.549,1016.36,421.676z" fill="#FFFFFF"/>
</g>
<g>
</g>
<g>
</g>
<g>
</g>
<g>
</g>
<g>
</g>
<g>
</g>
<g>
</g>
<g>
</g>
<g>
</g>
<g>
</g>
<g>
</g>
<g>
</g>
<g>
</g>
<g>
</g>
<g>
</g>
</svg>
